<?xml version="1.0" encoding="utf-8"?>
<!-- Generator: Adobe Illustrator 19.1.0, SVG Export Plug-In . SVG Version: 6.00 Build 0)  -->
<svg version="1.1" id="Layer_1" xmlns="http://www.w3.org/2000/svg" xmlns:xlink="http://www.w3.org/1999/xlink" x="0px" y="0px"
	 viewBox="0 0 325 326.1" style="enable-background:new 0 0 325 326.1;" xml:space="preserve">
<style type="text/css">
	.st0{fill:#FAFCFD;}
</style>
<path class="st0" d="M303.1,147.2c5.8-3.3,9.1-10.1,7.6-17.1c-1.5-6.9-7.2-11.8-13.9-12.5c5-4.5,6.7-11.9,3.8-18.3
	c-2.9-6.4-9.6-10-16.3-9.2c3.9-5.5,4-13-0.3-18.7c-4.2-5.7-11.5-7.7-17.9-5.5c2.6-6.2,1.1-13.6-4.2-18.2c-5.3-4.6-12.9-5.1-18.6-1.6
	c1.2-6.6-1.9-13.5-8.1-16.9c-6.2-3.4-13.7-2.1-18.6,2.5c-0.2-6.7-4.7-12.8-11.5-14.8c-6.8-1.9-13.9,0.9-17.6,6.4
	c-1.6-6.5-7.4-11.5-14.4-11.9c-7.1-0.4-13.3,3.8-15.8,10.1c-3-6-9.7-9.7-16.6-8.6c-7,1.1-12.2,6.6-13.3,13.2
	c-4.2-5.2-11.5-7.3-18.1-4.8c-6.6,2.5-10.5,9-10.1,15.7c-5.3-4.2-12.8-4.7-18.7-0.8c-5.9,3.9-8.3,11.1-6.5,17.6
	c-6-3-13.5-1.9-18.4,3.2c-4.9,5.1-5.8,12.6-2.6,18.5c-6.5-1.6-13.6,1.1-17.3,7.1c-3.7,6-2.9,13.6,1.5,18.7
	c-6.7-0.2-13.1,4-15.4,10.7c-2.3,6.7,0.1,13.9,5.5,17.9c-6.6,1.3-11.9,6.7-12.7,13.8c-0.8,7,3.1,13.5,9.2,16.3
	c-6.2,2.7-10.2,9.1-9.5,16.1c0.7,7.1,5.9,12.6,12.5,14c-5.4,4-8,11.1-5.8,17.8c0,0,0,0,0,0c2.2,6.7,8.4,11,15.2,11
	c-4.4,5-5.4,12.5-1.8,18.6c3.6,6.1,10.6,8.9,17.2,7.4c-3.3,5.9-2.6,13.4,2.2,18.6c4.8,5.2,12.3,6.4,18.4,3.6
	c-2,6.4,0.3,13.6,6.2,17.7c5.8,4,13.4,3.7,18.7-0.4c-0.5,6.7,3.3,13.3,9.8,16c6.6,2.7,13.9,0.7,18.2-4.5c0.9,6.6,6,12.3,13,13.4
	c7,1.2,13.7-2.3,16.8-8.3c2.3,6.1,8.1,10.3,14.9,10.3c0.2,0,0.5,0,0.7,0c7.1-0.3,12.9-5.2,14.6-11.6c3.6,5.6,10.6,8.6,17.5,6.7
	c6.9-1.8,11.4-7.8,11.8-14.5c4.8,4.7,12.2,6.1,18.5,2.8c6.3-3.3,9.5-10.1,8.4-16.7c5.7,3.6,13.2,3.3,18.6-1.2c0,0,0,0,0,0
	c5.4-4.5,7.1-11.9,4.6-18.2c6.3,2.3,13.6,0.4,18-5.2c4.4-5.6,4.4-13.1,0.6-18.7c6.7,0.9,13.4-2.5,16.5-8.9c3-6.4,1.4-13.8-3.5-18.4
	c6.7-0.6,12.6-5.4,14.2-12.3c1.6-6.9-1.6-13.8-7.3-17.2c6.4-2,11.1-7.9,11.2-15c0-0.1,0-0.2,0-0.3c0-0.1,0-0.2,0-0.3
	C314,155.4,309.4,149.3,303.1,147.2z"/>
</svg>
