<?xml version="1.0" encoding="utf-8"?>
<!-- Generator: Adobe Illustrator 18.1.1, SVG Export Plug-In . SVG Version: 6.00 Build 0)  -->
<svg version="1.1" id="Layer_1" xmlns="http://www.w3.org/2000/svg" xmlns:xlink="http://www.w3.org/1999/xlink" x="0px" y="0px"
	 viewBox="0 0 577.1 16.3" enable-background="new 0 0 577.1 16.3" xml:space="preserve">
<path fill="#F6F7F7" stroke="#F6F7F7" stroke-miterlimit="10" d="M27.2,15.9c0-7.5-6.1-13.6-13.6-13.6S0,8.4,0,15.9H27.2z"/>
<path fill="#F6F7F7" stroke="#F6F7F7" stroke-miterlimit="10" d="M53.3,15.9c0-7.5-6.1-13.6-13.6-13.6S26.2,8.4,26.2,15.9H53.3z"/>
<path fill="#F6F7F7" stroke="#F6F7F7" stroke-miterlimit="10" d="M79.5,15.9c0-7.5-6.1-13.6-13.6-13.6S52.3,8.4,52.3,15.9H79.5z"/>
<path fill="#F6F7F7" stroke="#F6F7F7" stroke-miterlimit="10" d="M105.7,15.9c0-7.5-6.1-13.6-13.6-13.6c-7.5,0-13.6,6.1-13.6,13.6
	H105.7z"/>
<path fill="#F6F7F7" stroke="#F6F7F7" stroke-miterlimit="10" d="M131.9,15.9c0-7.5-6.1-13.6-13.6-13.6c-7.5,0-13.6,6.1-13.6,13.6
	H131.9z"/>
<path fill="#F6F7F7" stroke="#F6F7F7" stroke-miterlimit="10" d="M158,15.9c0-7.5-6.1-13.6-13.6-13.6c-7.5,0-13.6,6.1-13.6,13.6H158
	z"/>
<path fill="#F6F7F7" stroke="#F6F7F7" stroke-miterlimit="10" d="M184.2,15.9c0-7.5-6.1-13.6-13.6-13.6c-7.5,0-13.6,6.1-13.6,13.6
	H184.2z"/>
<path fill="#F6F7F7" stroke="#F6F7F7" stroke-miterlimit="10" d="M210.4,15.9c0-7.5-6.1-13.6-13.6-13.6c-7.5,0-13.6,6.1-13.6,13.6
	H210.4z"/>
<path fill="#F6F7F7" stroke="#F6F7F7" stroke-miterlimit="10" d="M236.8,15.9c0-7.5-6.1-13.6-13.6-13.6c-7.5,0-13.6,6.1-13.6,13.6
	H236.8z"/>
<path fill="#F6F7F7" stroke="#F6F7F7" stroke-miterlimit="10" d="M263,15.9c0-7.5-6.1-13.6-13.6-13.6c-7.5,0-13.6,6.1-13.6,13.6H263
	z"/>
<path fill="#F6F7F7" stroke="#F6F7F7" stroke-miterlimit="10" d="M289.2,15.9c0-7.5-6.1-13.6-13.6-13.6S262,8.4,262,15.9H289.2z"/>
<path fill="#F6F7F7" stroke="#F6F7F7" stroke-miterlimit="10" d="M315.3,15.9c0-7.5-6.1-13.6-13.6-13.6c-7.5,0-13.6,6.1-13.6,13.6
	H315.3z"/>
<path fill="#F6F7F7" stroke="#F6F7F7" stroke-miterlimit="10" d="M341.5,15.9c0-7.5-6.1-13.6-13.6-13.6c-7.5,0-13.6,6.1-13.6,13.6
	H341.5z"/>
<path fill="#F6F7F7" stroke="#F6F7F7" stroke-miterlimit="10" d="M367.7,15.9c0-7.5-6.1-13.6-13.6-13.6s-13.6,6.1-13.6,13.6H367.7z"
	/>
<path fill="#F6F7F7" stroke="#F6F7F7" stroke-miterlimit="10" d="M393.8,15.9c0-7.5-6.1-13.6-13.6-13.6s-13.6,6.1-13.6,13.6H393.8z"
	/>
<path fill="#F6F7F7" stroke="#F6F7F7" stroke-miterlimit="10" d="M420,15.9c0-7.5-6.1-13.6-13.6-13.6c-7.5,0-13.6,6.1-13.6,13.6H420
	z"/>
<path fill="#F6F7F7" stroke="#F6F7F7" stroke-miterlimit="10" d="M446.2,15.9c0-7.5-6.1-13.6-13.6-13.6c-7.5,0-13.6,6.1-13.6,13.6
	H446.2z"/>
<path fill="#F6F7F7" stroke="#F6F7F7" stroke-miterlimit="10" d="M472.4,15.9c0-7.5-6.1-13.6-13.6-13.6s-13.6,6.1-13.6,13.6H472.4z"
	/>
<path fill="#F6F7F7" stroke="#F6F7F7" stroke-miterlimit="10" d="M498.5,15.9c0-7.5-6.1-13.6-13.6-13.6s-13.6,6.1-13.6,13.6H498.5z"
	/>
<path fill="#F6F7F7" stroke="#F6F7F7" stroke-miterlimit="10" d="M524.7,15.9c0-7.5-6.1-13.6-13.6-13.6c-7.5,0-13.6,6.1-13.6,13.6
	H524.7z"/>
<path fill="#F6F7F7" stroke="#F6F7F7" stroke-miterlimit="10" d="M550.9,15.9c0-7.5-6.1-13.6-13.6-13.6s-13.6,6.1-13.6,13.6H550.9z"
	/>
<path fill="#F6F7F7" stroke="#F6F7F7" stroke-miterlimit="10" d="M577.1,16.3c0-7.5-6.1-13.6-13.6-13.6c-7.5,0-13.6,6.1-13.6,13.6
	H577.1z"/>
</svg>
