<?xml version="1.0" encoding="utf-8"?>
<!-- Generator: Adobe Illustrator 19.1.0, SVG Export Plug-In . SVG Version: 6.00 Build 0)  -->
<svg version="1.1" id="Layer_1" xmlns="http://www.w3.org/2000/svg" xmlns:xlink="http://www.w3.org/1999/xlink" x="0px" y="0px"
	 viewBox="0 0 266.1 282.6" style="enable-background:new 0 0 266.1 282.6;" xml:space="preserve">
<style type="text/css">
	.st0{fill:#FFFFFF;stroke:#FFFFFF;stroke-miterlimit:10;}
</style>
<path class="st0" d="M44.2,251.2c0,7.5-6.1,13.6-13.6,13.6S17,258.7,17,251.2H44.2z"/>
<path class="st0" d="M70.3,251.2c0,7.5-6.1,13.6-13.6,13.6s-13.5-6.1-13.5-13.6H70.3z"/>
<path class="st0" d="M96.5,251.2c0,7.5-6.1,13.6-13.6,13.6s-13.6-6.1-13.6-13.6H96.5z"/>
<path class="st0" d="M122.7,251.2c0,7.5-6.1,13.6-13.6,13.6s-13.6-6.1-13.6-13.6H122.7z"/>
<path class="st0" d="M148.9,251.2c0,7.5-6.1,13.6-13.6,13.6c-7.5,0-13.6-6.1-13.6-13.6H148.9z"/>
<path class="st0" d="M175,251.2c0,7.5-6.1,13.6-13.6,13.6s-13.6-6.1-13.6-13.6H175z"/>
<path class="st0" d="M201.2,251.2c0,7.5-6.1,13.6-13.6,13.6c-7.5,0-13.6-6.1-13.6-13.6H201.2z"/>
<path class="st0" d="M227.4,251.2c0,7.5-6.1,13.6-13.6,13.6s-13.6-6.1-13.6-13.6H227.4z"/>
<path class="st0" d="M253.8,251.2c0,7.5-6.1,13.6-13.6,13.6s-13.6-6.1-13.6-13.6H253.8z"/>
<rect x="17" y="2.8" class="st0" width="236.8" height="248.5"/>
</svg>
