<?xml version="1.0" encoding="utf-8"?>
<!-- Generator: Adobe Illustrator 18.1.1, SVG Export Plug-In . SVG Version: 6.00 Build 0)  -->
<svg version="1.1" id="Layer_1" xmlns="http://www.w3.org/2000/svg" xmlns:xlink="http://www.w3.org/1999/xlink" x="0px" y="0px"
	 viewBox="0 0 577.1 16.3" enable-background="new 0 0 577.1 16.3" xml:space="preserve">
<path fill="#F6F7F7" stroke="#F6F7F7" stroke-miterlimit="10" d="M27.2,0c0,7.5-6.1,13.6-13.6,13.6S0,7.5,0,0H27.2z"/>
<path fill="#F6F7F7" stroke="#F6F7F7" stroke-miterlimit="10" d="M53.3,0c0,7.5-6.1,13.6-13.6,13.6S26.2,7.5,26.2,0H53.3z"/>
<path fill="#F6F7F7" stroke="#F6F7F7" stroke-miterlimit="10" d="M79.5,0c0,7.5-6.1,13.6-13.6,13.6S52.3,7.5,52.3,0H79.5z"/>
<path fill="#F6F7F7" stroke="#F6F7F7" stroke-miterlimit="10" d="M105.7,0c0,7.5-6.1,13.6-13.6,13.6c-7.5,0-13.6-6.1-13.6-13.6
	H105.7z"/>
<path fill="#F6F7F7" stroke="#F6F7F7" stroke-miterlimit="10" d="M131.9,0c0,7.5-6.1,13.6-13.6,13.6c-7.5,0-13.6-6.1-13.6-13.6
	H131.9z"/>
<path fill="#F6F7F7" stroke="#F6F7F7" stroke-miterlimit="10" d="M158,0c0,7.5-6.1,13.6-13.6,13.6c-7.5,0-13.6-6.1-13.6-13.6H158z"
	/>
<path fill="#F6F7F7" stroke="#F6F7F7" stroke-miterlimit="10" d="M184.2,0c0,7.5-6.1,13.6-13.6,13.6C163.1,13.6,157,7.5,157,0H184.2
	z"/>
<path fill="#F6F7F7" stroke="#F6F7F7" stroke-miterlimit="10" d="M210.4,0c0,7.5-6.1,13.6-13.6,13.6c-7.5,0-13.6-6.1-13.6-13.6
	H210.4z"/>
<path fill="#F6F7F7" stroke="#F6F7F7" stroke-miterlimit="10" d="M236.8,0c0,7.5-6.1,13.6-13.6,13.6c-7.5,0-13.6-6.1-13.6-13.6
	H236.8z"/>
<path fill="#F6F7F7" stroke="#F6F7F7" stroke-miterlimit="10" d="M263,0c0,7.5-6.1,13.6-13.6,13.6c-7.5,0-13.6-6.1-13.6-13.6H263z"
	/>
<path fill="#F6F7F7" stroke="#F6F7F7" stroke-miterlimit="10" d="M289.2,0c0,7.5-6.1,13.6-13.6,13.6S262,7.5,262,0H289.2z"/>
<path fill="#F6F7F7" stroke="#F6F7F7" stroke-miterlimit="10" d="M315.3,0c0,7.5-6.1,13.6-13.6,13.6c-7.5,0-13.6-6.1-13.6-13.6
	H315.3z"/>
<path fill="#F6F7F7" stroke="#F6F7F7" stroke-miterlimit="10" d="M341.5,0c0,7.5-6.1,13.6-13.6,13.6c-7.5,0-13.6-6.1-13.6-13.6
	H341.5z"/>
<path fill="#F6F7F7" stroke="#F6F7F7" stroke-miterlimit="10" d="M367.7,0c0,7.5-6.1,13.6-13.6,13.6S340.5,7.5,340.5,0H367.7z"/>
<path fill="#F6F7F7" stroke="#F6F7F7" stroke-miterlimit="10" d="M393.8,0c0,7.5-6.1,13.6-13.6,13.6S366.7,7.5,366.7,0H393.8z"/>
<path fill="#F6F7F7" stroke="#F6F7F7" stroke-miterlimit="10" d="M420,0c0,7.5-6.1,13.6-13.6,13.6c-7.5,0-13.6-6.1-13.6-13.6H420z"
	/>
<path fill="#F6F7F7" stroke="#F6F7F7" stroke-miterlimit="10" d="M446.2,0c0,7.5-6.1,13.6-13.6,13.6C425.1,13.6,419,7.5,419,0H446.2
	z"/>
<path fill="#F6F7F7" stroke="#F6F7F7" stroke-miterlimit="10" d="M472.4,0c0,7.5-6.1,13.6-13.6,13.6S445.2,7.5,445.2,0H472.4z"/>
<path fill="#F6F7F7" stroke="#F6F7F7" stroke-miterlimit="10" d="M498.5,0c0,7.5-6.1,13.6-13.6,13.6S471.4,7.5,471.4,0H498.5z"/>
<path fill="#F6F7F7" stroke="#F6F7F7" stroke-miterlimit="10" d="M524.7,0c0,7.5-6.1,13.6-13.6,13.6c-7.5,0-13.6-6.1-13.6-13.6
	H524.7z"/>
<path fill="#F6F7F7" stroke="#F6F7F7" stroke-miterlimit="10" d="M550.9,0c0,7.5-6.1,13.6-13.6,13.6S523.7,7.5,523.7,0H550.9z"/>
<path fill="#F6F7F7" stroke="#F6F7F7" stroke-miterlimit="10" d="M577.1-0.4c0,7.5-6.1,13.6-13.6,13.6c-7.5,0-13.6-6.1-13.6-13.6
	H577.1z"/>
</svg>
